# xmcd
#
# Track frame offsets: 
#        150
#        11557
#        25072
#        35834
#        46584
#        57120
#        73851
#        84522
#        94729
#        104543
#        118551
#        129791
#        147093
#        157732
#        173948
#        185380
#        198904
#        209666
#        220371
#        230892
#        247630
#        258483
#        268653
#        278286
#        292287
#        303421
#        320707
#        331272
#
# Disc length: 4622 seconds
#
# Revision: 0
# Processed by: cddbd v1.5.2PL0 Copyright (c) Steve Scherf et al.
# Submitted via: ExactAudioCopy v0.95b3
#
DISCID=95120c1c
DTITLE=The Bee Gees  - Bee Gees' 1st - Disc 1
DYEAR=1900
DGENRE=
TTITLE0=Turn of the Century
TTITLE1=Holiday
TTITLE2=Red Chair, Fade Away
TTITLE3=One Minute Woman
TTITLE4=In My Own Time
TTITLE5=Every Christian Lion Hearted Man Will Show You
TTITLE6=Craise Finton Kirk Royal Academy of Arts
TTITLE7=New York Mining Disaster 1941
TTITLE8=Cucumber Castle
TTITLE9=To Love Somebody
TTITLE10=I Close My Eyes
TTITLE11=I Can't See Nobody
TTITLE12=Please Read Me
TTITLE13=Close Another Door
TTITLE14=Turn of the Century
TTITLE15=Holiday
TTITLE16=Red Chair, Fade Away
TTITLE17=One Minute Woman
TTITLE18=In My Own Time
TTITLE19=Every Christian Lion Hearted Man Will Show You
TTITLE20=Craise Finton Kirk Royal Academy of Arts
TTITLE21=New York Mining Disaster 1941
TTITLE22=Cucumber Castle
TTITLE23=To Love Somebody
TTITLE24=I Close My Eyes
TTITLE25=I Can't See Nobody
TTITLE26=Please Read Me
TTITLE27=Close Another Door
EXTD=
EXTT0=
EXTT1=
EXTT2=
EXTT3=
EXTT4=
EXTT5=
EXTT6=
EXTT7=
EXTT8=
EXTT9=
EXTT10=
EXTT11=
EXTT12=
EXTT13=
EXTT14=
EXTT15=
EXTT16=
EXTT17=
EXTT18=
EXTT19=
EXTT20=
EXTT21=
EXTT22=
EXTT23=
EXTT24=
EXTT25=
EXTT26=
EXTT27=
PLAYORDER=
